<svg width="24" height="24" viewBox="0 0 24 24" fill="none" xmlns="http://www.w3.org/2000/svg">
<path d="M12 12C10.7625 12 9.70312 11.5594 8.82187 10.6781C7.94062 9.79687 7.5 8.7375 7.5 7.5C7.5 6.2625 7.94062 5.20313 8.82187 4.32188C9.70312 3.44063 10.7625 3 12 3C13.2375 3 14.2969 3.44063 15.1781 4.32188C16.0594 5.20313 16.5 6.2625 16.5 7.5C16.5 8.7375 16.0594 9.79687 15.1781 10.6781C14.2969 11.5594 13.2375 12 12 12ZM3 21V17.85C3 17.2125 3.16425 16.6267 3.49275 16.0927C3.82125 15.5587 4.257 15.1508 4.8 14.8688C5.9625 14.2875 7.14375 13.8517 8.34375 13.5615C9.54375 13.2712 10.7625 13.1257 12 13.125C13.2375 13.1243 14.4562 13.2697 15.6562 13.5615C16.8562 13.8532 18.0375 14.289 19.2 14.8688C19.7437 15.15 20.1799 15.558 20.5084 16.0927C20.8369 16.6275 21.0007 17.2133 21 17.85V21H3Z" fill="#181A23"/>
</svg>
