<svg width="22" height="24" viewBox="0 0 22 24" fill="none" xmlns="http://www.w3.org/2000/svg">
<path fill-rule="evenodd" clip-rule="evenodd" d="M16.334 15.9984C18.0753 15.9984 19.558 17.1117 20.1073 18.665H21.6673C21.6673 18.665 21.6673 19.0555 21.6673 19.3317C21.6673 19.9984 21.6673 19.6447 21.6673 19.9984C21.6673 20.352 21.6673 20.665 21.6673 20.9412C21.6673 21.3317 21.6673 21.3317 21.6673 21.3317H20.1073C19.8318 22.1124 19.321 22.7884 18.6452 23.2666C17.9693 23.7448 17.1618 24.0016 16.334 24.0016C15.5061 24.0016 14.6986 23.7448 14.0228 23.2666C13.3469 22.7884 12.8361 22.1124 12.5606 21.3317H0.333962C0.334231 21.0348 0.333473 20.8681 0.333989 20.665C0.333989 20.3369 0.333811 20.352 0.333811 19.9984C0.333811 19.6447 0.333989 19.2119 0.333989 18.7794C0.334043 18.4463 0.333908 19.0976 0.333962 18.665H12.5606C12.8365 17.8848 13.3475 17.2094 14.0233 16.7318C14.6991 16.2542 15.5064 15.9979 16.334 15.9984ZM16.334 18.665C15.9803 18.665 15.6412 18.8055 15.3912 19.0555C15.1411 19.3056 15.0006 19.6447 15.0006 19.9984C15.0006 20.352 15.1411 20.6911 15.3912 20.9412C15.6412 21.1912 15.9803 21.3317 16.334 21.3317C16.6876 21.3317 17.0267 21.1912 17.2768 20.9412C17.5268 20.6911 17.6673 20.352 17.6673 19.9984C17.6673 19.6447 17.5268 19.3056 17.2768 19.0555C17.0267 18.8055 16.6876 18.665 16.334 18.665ZM5.6673 7.99835C6.45262 7.99825 7.22059 8.22931 7.87547 8.66274C8.53035 9.09616 9.04316 9.71277 9.34996 10.4357L9.4393 10.665H21.6673C21.6673 10.665 21.6673 11.0088 21.6673 11.3317C21.6673 11.9984 21.6673 11.3317 21.6673 11.9984C21.6673 12.665 21.6673 12.665 21.6673 12.665V13.3317H9.44063C9.17183 14.0921 8.67953 14.7535 8.02827 15.2292C7.37702 15.7049 6.59721 15.9727 5.7911 15.9975C4.98498 16.0223 4.19019 15.8029 3.51093 15.3681C2.83167 14.9333 2.29965 14.3034 1.98463 13.561L1.89396 13.3317H0.333962C0.333962 13.3317 0.337581 13.3161 0.333672 12.6911C0.33139 12.3264 0.333672 12.4254 0.337581 12.0765C0.333672 11.6546 0.333672 11.3317 0.333672 11.3317L0.333789 10.9984L0.333907 10.665H1.89396C2.16981 9.88481 2.68085 9.20936 3.35665 8.73176C4.03246 8.25416 4.83976 7.99792 5.6673 7.99835ZM5.6673 10.665C5.31367 10.665 4.97453 10.8055 4.72449 11.0555C4.47444 11.3056 4.33396 11.6447 4.33396 11.9984C4.33396 12.352 4.47444 12.6911 4.72449 12.9412C4.97453 13.1912 5.31367 13.3317 5.6673 13.3317C6.02092 13.3317 6.36006 13.1912 6.6101 12.9412C6.86015 12.6911 7.00063 12.352 7.00063 11.9984C7.00063 11.6447 6.86015 11.3056 6.6101 11.0555C6.36006 10.8055 6.02092 10.665 5.6673 10.665ZM16.334 -0.0016474C18.0753 -0.0016474 19.558 1.11169 20.1073 2.66502H21.6673V3.33169C21.6673 3.99835 21.6673 3.64473 21.6673 3.99835C21.6673 4.35197 21.6673 3.99835 21.6673 4.66502V5.33169H20.1073C19.8318 6.1124 19.321 6.78844 18.6452 7.26663C17.9693 7.74483 17.1618 8.00162 16.334 8.00162C15.5061 8.00162 14.6986 7.74483 14.0228 7.26663C13.3469 6.78844 12.8361 6.1124 12.5606 5.33169H0.333962C0.333962 5.33169 0.333989 5.33169 0.333989 4.66502C0.333989 3.99835 0.333811 4.35197 0.333811 3.99835C0.333811 3.64473 0.333989 3.33169 0.333989 2.7794C0.333989 2.66502 0.333989 3.33169 0.333962 2.66502H12.5606C12.8365 1.88481 13.3475 1.20936 14.0233 0.731761C14.6991 0.25416 15.5064 -0.00208123 16.334 -0.0016474ZM16.334 2.66502C15.9803 2.66502 15.6412 2.8055 15.3912 3.05554C15.1411 3.30559 15.0006 3.64473 15.0006 3.99835C15.0006 4.35197 15.1411 4.69111 15.3912 4.94116C15.6412 5.19121 15.9803 5.33169 16.334 5.33169C16.6876 5.33169 17.0267 5.19121 17.2768 4.94116C17.5268 4.69111 17.6673 4.35197 17.6673 3.99835C17.6673 3.64473 17.5268 3.30559 17.2768 3.05554C17.0267 2.8055 16.6876 2.66502 16.334 2.66502Z" fill="#6B1AEE"/>
</svg>
