<svg width="24" height="25" viewBox="0 0 24 25" fill="none" xmlns="http://www.w3.org/2000/svg">
<path d="M2 5.5V19.5H22V5.5H2ZM7 17.5C7 16.7044 6.68393 15.9413 6.12132 15.3787C5.55871 14.8161 4.79565 14.5 4 14.5V10.5C4.79565 10.5 5.55871 10.1839 6.12132 9.62132C6.68393 9.05871 7 8.29565 7 7.5H17C17 8.29565 17.3161 9.05871 17.8787 9.62132C18.4413 10.1839 19.2044 10.5 20 10.5V14.5C19.2044 14.5 18.4413 14.8161 17.8787 15.3787C17.3161 15.9413 17 16.7044 17 17.5H7ZM12 9.5C13.1 9.5 14 10.8 14 12.5C14 14.2 13.1 15.5 12 15.5C10.9 15.5 10 14.2 10 12.5C10 10.8 10.9 9.5 12 9.5Z" fill="#F5F5F7"/>
</svg>
