<svg width="24" height="24" viewBox="0 0 24 24" fill="none" xmlns="http://www.w3.org/2000/svg">
<path d="M18.1882 16.617L22.4712 20.899L21.0562 22.314L16.7742 18.031C15.181 19.3082 13.1992 20.0029 11.1572 20C6.18923 20 2.15723 15.968 2.15723 11C2.15723 6.032 6.18923 2 11.1572 2C16.1252 2 20.1572 6.032 20.1572 11C20.1601 13.042 19.4654 15.0237 18.1882 16.617ZM16.1822 15.875C17.4511 14.5697 18.1598 12.8204 18.1572 11C18.1572 7.133 15.0242 4 11.1572 4C7.29023 4 4.15723 7.133 4.15723 11C4.15723 14.867 7.29023 18 11.1572 18C12.9776 18.0025 14.7269 17.2938 16.0322 16.025L16.1822 15.875Z" fill="white"/>
</svg>
