<svg width="24" height="24" viewBox="0 0 24 24" fill="none" xmlns="http://www.w3.org/2000/svg">
<g clip-path="url(#clip0_649_5999)">
<path d="M23.5 12C23.5 17.5368 19.5866 22.1603 14.375 23.2544V15.9688H16.6711H17.1003L17.1653 15.5446L17.6973 12.0758L17.7857 11.5H17.2031H14.375V9.74906C14.375 9.34723 14.4743 9.01184 14.672 8.7832C14.858 8.5681 15.1939 8.375 15.8306 8.375H17.3438H17.8438V7.875V4.92188V4.49998L17.4279 4.429L17.3438 4.92188L17.4278 4.42899L17.4277 4.42897L17.4273 4.42891L17.4263 4.42873L17.4226 4.42812L17.4096 4.42594L17.3611 4.41807C17.3191 4.41136 17.2583 4.40189 17.1815 4.39059C17.028 4.36799 16.8101 4.33798 16.5504 4.30799C16.0331 4.24826 15.3407 4.1875 14.6576 4.1875C13.1861 4.1875 11.9142 4.6353 11.0097 5.54067C10.1047 6.44655 9.625 7.75272 9.625 9.35625V11.5H7.07812H6.57812V12V15.4688V15.9688H7.07812H9.625V23.2544C4.4134 22.1603 0.5 17.5367 0.5 12C0.5 5.64877 5.64877 0.5 12 0.5C18.3512 0.5 23.5 5.64877 23.5 12Z" fill="#1877F2" stroke="#1877F2"/>
<path d="M16.6711 15.4688L17.2031 12H13.875V9.74906C13.875 8.79994 14.3399 7.875 15.8306 7.875H17.3438V4.92188C17.3438 4.92188 15.9705 4.6875 14.6575 4.6875C11.9166 4.6875 10.125 6.34875 10.125 9.35625V12H7.07812V15.4688H10.125V23.8542C10.7453 23.9514 11.3722 24.0001 12 24C12.6278 24.0001 13.2547 23.9514 13.875 23.8542V15.4688H16.6711Z" fill="white"/>
</g>
<defs>
<clipPath id="clip0_649_5999">
<rect width="24" height="24" fill="white"/>
</clipPath>
</defs>
</svg>
