<svg width="24" height="24" viewBox="0 0 24 24" fill="none" xmlns="http://www.w3.org/2000/svg">
<path fill-rule="evenodd" clip-rule="evenodd" d="M17.334 15.9984C19.0753 15.9984 20.558 17.1117 21.1073 18.6651H22.6673C22.6673 18.6651 22.6673 19.0556 22.6673 19.3317C22.6673 19.9984 22.6673 19.6448 22.6673 19.9984C22.6673 20.352 22.6673 20.6651 22.6673 20.9412C22.6673 21.3317 22.6673 21.3317 22.6673 21.3317H21.1073C20.8318 22.1125 20.321 22.7885 19.6452 23.2667C18.9693 23.7449 18.1618 24.0017 17.334 24.0017C16.5061 24.0017 15.6986 23.7449 15.0228 23.2667C14.3469 22.7885 13.8361 22.1125 13.5606 21.3317H1.33396C1.33423 21.0349 1.33347 20.8682 1.33399 20.6651C1.33399 20.337 1.33381 20.352 1.33381 19.9984C1.33381 19.6448 1.33399 19.212 1.33399 18.7795C1.33404 18.4463 1.33391 19.0977 1.33396 18.6651H13.5606C13.8365 17.8849 14.3475 17.2094 15.0233 16.7318C15.6991 16.2542 16.5064 15.998 17.334 15.9984ZM17.334 18.6651C16.9803 18.6651 16.6412 18.8056 16.3912 19.0556C16.1411 19.3057 16.0006 19.6448 16.0006 19.9984C16.0006 20.352 16.1411 20.6912 16.3912 20.9412C16.6412 21.1913 16.9803 21.3317 17.334 21.3317C17.6876 21.3317 18.0267 21.1913 18.2768 20.9412C18.5268 20.6912 18.6673 20.352 18.6673 19.9984C18.6673 19.6448 18.5268 19.3057 18.2768 19.0556C18.0267 18.8056 17.6876 18.6651 17.334 18.6651ZM6.6673 7.99841C7.45262 7.99831 8.22059 8.22937 8.87547 8.6628C9.53035 9.09622 10.0432 9.71283 10.35 10.4357L10.4393 10.6651H22.6673C22.6673 10.6651 22.6673 11.0088 22.6673 11.3317C22.6673 11.9984 22.6673 11.3317 22.6673 11.9984C22.6673 12.6651 22.6673 12.6651 22.6673 12.6651V13.3317H10.4406C10.1718 14.0921 9.67953 14.7535 9.02827 15.2292C8.37702 15.705 7.59721 15.9728 6.7911 15.9976C5.98498 16.0224 5.19019 15.803 4.51093 15.3682C3.83167 14.9334 3.29965 14.3035 2.98463 13.5611L2.89396 13.3317H1.33396C1.33396 13.3317 1.33758 13.3161 1.33367 12.6911C1.33139 12.3265 1.33367 12.4255 1.33758 12.0766C1.33367 11.6547 1.33367 11.3317 1.33367 11.3317L1.33379 10.9984L1.33391 10.6651H2.89396C3.16981 9.88487 3.68085 9.20942 4.35665 8.73182C5.03246 8.25422 5.83976 7.99798 6.6673 7.99841ZM6.6673 10.6651C6.31367 10.6651 5.97453 10.8056 5.72449 11.0556C5.47444 11.3057 5.33396 11.6448 5.33396 11.9984C5.33396 12.352 5.47444 12.6912 5.72449 12.9412C5.97453 13.1913 6.31367 13.3317 6.6673 13.3317C7.02092 13.3317 7.36006 13.1913 7.6101 12.9412C7.86015 12.6912 8.00063 12.352 8.00063 11.9984C8.00063 11.6448 7.86015 11.3057 7.6101 11.0556C7.36006 10.8056 7.02092 10.6651 6.6673 10.6651ZM17.334 -0.00158636C19.0753 -0.00158636 20.558 1.11175 21.1073 2.66508H22.6673V3.33175C22.6673 3.99841 22.6673 3.64479 22.6673 3.99841C22.6673 4.35204 22.6673 3.99841 22.6673 4.66508V5.33175H21.1073C20.8318 6.11246 20.321 6.7885 19.6452 7.26669C18.9693 7.74489 18.1618 8.00168 17.334 8.00168C16.5061 8.00168 15.6986 7.74489 15.0228 7.26669C14.3469 6.7885 13.8361 6.11246 13.5606 5.33175H1.33396C1.33396 5.33175 1.33399 5.33175 1.33399 4.66508C1.33399 3.99841 1.33381 4.35204 1.33381 3.99841C1.33381 3.64479 1.33399 3.33175 1.33399 2.77946C1.33399 2.66508 1.33399 3.33175 1.33396 2.66508H13.5606C13.8365 1.88487 14.3475 1.20942 15.0233 0.731822C15.6991 0.254221 16.5064 -0.00202019 17.334 -0.00158636ZM17.334 2.66508C16.9803 2.66508 16.6412 2.80556 16.3912 3.0556C16.1411 3.30565 16.0006 3.64479 16.0006 3.99841C16.0006 4.35204 16.1411 4.69117 16.3912 4.94122C16.6412 5.19127 16.9803 5.33175 17.334 5.33175C17.6876 5.33175 18.0267 5.19127 18.2768 4.94122C18.5268 4.69117 18.6673 4.35204 18.6673 3.99841C18.6673 3.64479 18.5268 3.30565 18.2768 3.0556C18.0267 2.80556 17.6876 2.66508 17.334 2.66508Z" fill="#494A4E"/>
</svg>
