<svg width="22" height="22" viewBox="0 0 22 22" fill="none" xmlns="http://www.w3.org/2000/svg">
<path d="M16.874 15.46L21.157 19.742L19.742 21.157L15.46 16.874C13.8668 18.1512 11.885 18.8459 9.84302 18.843C4.87502 18.843 0.843018 14.811 0.843018 9.84302C0.843018 4.87502 4.87502 0.843018 9.84302 0.843018C14.811 0.843018 18.843 4.87502 18.843 9.84302C18.8459 11.885 18.1512 13.8668 16.874 15.46ZM14.868 14.718C16.1369 13.4127 16.8456 11.6634 16.843 9.84302C16.843 5.97602 13.71 2.84302 9.84302 2.84302C5.97602 2.84302 2.84302 5.97602 2.84302 9.84302C2.84302 13.71 5.97602 16.843 9.84302 16.843C11.6634 16.8456 13.4127 16.1369 14.718 14.868L14.868 14.718Z" fill="white"/>
</svg>
