<svg width="25" height="24" viewBox="0 0 25 24" fill="none" xmlns="http://www.w3.org/2000/svg">
<path d="M13 12V12.5H13.5H17V13.5H12V7.5H13V12ZM12.5 21.5C7.25314 21.5 3 17.2469 3 12C3 6.75314 7.25314 2.5 12.5 2.5C17.7469 2.5 22 6.75314 22 12C22 17.2469 17.7469 21.5 12.5 21.5ZM12.5 20.5C14.7543 20.5 16.9163 19.6045 18.5104 18.0104C20.1045 16.4163 21 14.2543 21 12C21 9.74566 20.1045 7.58365 18.5104 5.98959C16.9163 4.39553 14.7543 3.5 12.5 3.5C10.2457 3.5 8.08365 4.39553 6.48959 5.98959C4.89553 7.58365 4 9.74566 4 12C4 14.2543 4.89553 16.4163 6.48959 18.0104C8.08365 19.6045 10.2457 20.5 12.5 20.5Z" fill="black" stroke="#181A23"/>
</svg>
