<svg width="13" height="18" viewBox="0 0 13 18" fill="none" xmlns="http://www.w3.org/2000/svg">
<path d="M9.09 7.5H8.89734L8.7545 7.62927L6.5445 9.62927L5.58235 10.5H6.88H12V11.5H4.74H4.52898L4.38176 11.6512C3.99686 12.0465 3.66224 12.4487 3.42042 12.8295C3.1883 13.195 3 13.6047 3 14C3 15.0496 3.67057 15.6905 4.39075 16.0419C5.09904 16.3874 5.92995 16.5 6.5 16.5C7.28445 16.5 8.08612 16.1341 8.71287 15.7519C9.12605 15.4998 9.49496 15.2209 9.7753 14.9824L10.4861 15.6933C10.2227 15.9203 9.84087 16.2245 9.37765 16.5195C8.55825 17.0414 7.53709 17.5 6.5 17.5C5.33315 17.5 4.1904 17.1789 3.35358 16.5797C2.53021 15.9902 2 15.1339 2 14C2 13.4504 2.20987 12.8844 2.60183 12.2684L3.09084 11.5H2.18H1V10.5H3.91H4.11275L4.25824 10.3588C4.58786 10.0389 6.03925 8.73632 6.4554 8.37963L7.48163 7.5H6.13H1V6.5H8.26H8.47102L8.61824 6.34881C9.00314 5.9535 9.33776 5.55134 9.57958 5.17054C9.8117 4.80502 10 4.3953 10 4C10 2.95039 9.32943 2.30951 8.60925 1.95813C7.90096 1.61256 7.07005 1.5 6.5 1.5C5.71523 1.5 4.91588 1.86613 4.29049 2.24838C3.87629 2.50155 3.50708 2.78136 3.22634 3.01923L2.51385 2.30674C2.77735 2.07972 3.15912 1.7755 3.62235 1.48048C4.44175 0.958605 5.46291 0.5 6.5 0.5C7.66685 0.5 8.8096 0.821121 9.64642 1.42029C10.4698 2.00982 11 2.86611 11 4C11 4.5496 10.7901 5.11562 10.3982 5.73156L9.90916 6.5H10.82H12V7.5H9.09Z" fill="#494A4E" stroke="#494A4E"/>
</svg>
